<svg height="511pt" viewBox="-66 0 511 511.99986" width="511pt" xmlns="http://www.w3.org/2000/svg"><path d="m135.445312.332031c-52.5625 4.222657-114.859374 45.054688-131.828124 166.742188-16.113282 115.554687 29.296874 308.625 158.195312 337.878906 135.296875 30.707031 228.039062-42.582031 217.515625-149.191406-7.691406-77.886719-59.324219-92.148438-101.800781-178.445313-28.066406-57.015625-46.507813-184.664062-142.082032-176.984375zm0 0" fill="#f4dbb3"/><g fill="#c8645a"><path d="m107.828125 196.976562c.328125-6.257812 2.929687-13.101562 10.148437-20.910156 6.042969-6.535156 14.46875-10.832031 23.367188-10.691406 9.308594.152344 17.640625 4.183594 23.523438 10.53125 4.347656 4.683594 10.722656 6.839844 16.890624 5.164062 15.382813-4.191406 30.851563-6.515624 46.28125-4.644531 6.144532.746094 10.832032-5.277343 8.632813-11.066406-2.691406-7.074219-5.351563-14.457031-8.066406-22.03125-26.820313-74.746094-46.382813-110.316406-85.035157-110.316406-1.773437 0-3.617187.074219-5.480468.222656-53.011719 4.261719-90.105469 54.707031-101.777344 138.398437-.984375 7.070313-1.703125 14.421876-2.167969 21.988282-.414062 6.777344 4.011719 13.074218 10.546875 14.921875 18.175782 5.140625 35.933594 4.058593 53.707032.007812 5.429687-1.238281 9.132812-6.011719 9.429687-11.574219zm0 0"/><path d="m193.367188 372.652344c-23.554688-33.957032-49.527344-71.542969-55.652344-126.261719-.90625-8.117187-5.765625-15.28125-12.902344-19.253906l-.195312-.109375c-6.347657-3.535156-13.777344-4.550782-20.847657-2.882813-11.011719 2.597657-22.273437 4.269531-33.769531 4.269531-7.832031 0-15.765625-.789062-23.792969-2.558593-6.472656-1.429688-12.445312 3.574219-12.074219 10.1875 5.628907 100.601562 50.625 217.574219 134.984376 236.71875 15.148437 3.4375 29.949218 5.464843 44.125 6.050781 8.882812.363281 16.378906-6.476562 17.148437-15.335938 2.875-33.183593-15.285156-59.46875-37.023437-90.824218zm0 0"/><path d="m346.472656 359.003906c-3.511718-35.585937-18.273437-53.570312-40.617187-80.796875-13.875-16.90625-30.472657-37.226562-46.507813-65.023437-4.886718-8.464844-12.667968-15.171875-22.023437-18.019532-17.296875-5.261718-35.023438-2.945312-53.761719 2.46875-5.246094 1.515626-9.773438 5.34375-11.382812 10.558594-2.09375 6.773438-6.289063 12.609375-11.851563 16.726563-4.785156 3.546875-7.136719 9.472656-6.585937 15.40625 4.945312 53.289062 30.292968 89.90625 53.1875 122.921875 22.453124 32.386718 43.839843 63.398437 39.710937 103.285156-.578125 5.578125 4.421875 10.070312 9.917969 8.96875 26.929687-5.390625 49.546875-17.160156 65.371094-34.625 19.25-21.238281 27.734374-49.550781 24.542968-81.871094zm0 0"/></g><path d="m157.308594 198.382812c0 9.117188-7.390625 16.507813-16.507813 16.507813-9.113281 0-16.503906-7.390625-16.503906-16.507813 0-9.113281 7.390625-16.503906 16.503906-16.503906 9.117188 0 16.507813 7.390625 16.507813 16.503906zm0 0" fill="#fff5d7"/><path d="m53.136719 120.734375c1.210937-8.429687 2.632812-16.414063 4.292969-24.058594-9.878907 20.574219-17.039063 45.714844-21.117188 74.957031-.988281 7.070313-1.707031 14.421876-2.167969 21.988282-.417969 6.777344 4.011719 13.074218 10.542969 14.921875 2.59375.734375 5.207031 1.347656 7.785156 1.839843-3.449218-32.019531-3.175781-62.992187.664063-89.648437zm0 0" fill="#af504b"/><path d="m211.328125 447.722656c-92.800781-20.382812-142.296875-122.789062-156.746094-220.363281-2.777343-.386719-5.574219-.886719-8.378906-1.503906-6.46875-1.429688-12.445313 3.570312-12.074219 10.1875 5.632813 100.601562 50.628906 217.574219 134.988282 236.71875 15.148437 3.4375 29.949218 5.464843 44.121093 6.050781 8.886719.363281 16.382813-6.480469 17.152344-15.335938.359375-4.179687.382813-8.230468.113281-12.214843-6.300781-.96875-12.671875-2.113281-19.175781-3.539063zm0 0" fill="#af504b"/><path d="m247.097656 453.359375c.148438 4.292969.011719 8.667969-.453125 13.171875-.578125 5.578125 4.417969 10.070312 9.917969 8.96875 21.347656-4.273438 40.101562-12.648438 54.792969-24.597656-19.550781 3.640625-41.171875 4.636718-64.257813 2.457031zm0 0" fill="#af504b"/></svg>