<svg height="436pt" viewBox="0 -4 436.80427 436" width="436pt" xmlns="http://www.w3.org/2000/svg"><path d="m129.625 273.6875 141.625 141.628906-.347656.347656c26.355468 26.351563 81.78125 13.65625 123.800781-28.367187 41.453125-41.449219 54.367187-95.949219 29.410156-122.710937l.019531-.023438-142.691406-142.691406zm0 0" fill="#bf6c0d"/><path d="m301.816406 386.464844c18.125-22.578125 29.316406-48.878906 33.574219-76.058594l-.140625.023438c-.007812.03125-.007812.0625-.015625.09375-1.457031.230468-2.921875.433593-4.386719.621093l-.128906.019531-.003906-.003906c-3.6875.472656-7.390625.820313-11.097656 1.039063-1.445313 24.625-8.488282 48.980469-21.121094 71.003906l-139.191406-139.191406-29.679688 29.675781-.347656.351562 141.625 141.625c26.355468 26.351563 81.78125 13.65625 123.800781-28.367187 5.140625-5.140625 9.84375-10.480469 14.089844-15.945313-38.714844 30.082032-83.585938 37.21875-106.976563 15.113282zm0 0" fill="#a56021"/><path d="m149.4375 51.0625c-3.386719.390625-5.820312-2.042969-5.429688-5.425781 1.238282-10.683594-1.648437-20.980469-8.945312-28.277344-13.3125-13.3125-36.589844-11.96875-54.011719 2.367187-2.0625 1.695313-4.667969 2.1875-6.671875 1.234376-14.707031-7.007813-34.964844-2.636719-49.574218 11.972656-14.609376 14.609375-18.980469 34.867187-11.972657 49.574218.953125 2.003907.460938 4.613282-1.234375 6.671876-14.335937 17.421874-15.675781 40.699218-2.367187 54.011718 7.296875 7.296875 17.59375 10.183594 28.277343 8.945313 3.382813-.390625 5.816407 2.042969 5.425782 5.429687-1.238282 10.683594 1.652344 20.980469 8.949218 28.277344 14.367188 14.367188 40.355469 11.671875 58.046876-6.019531l11.378906 11.382812 61.769531-61.769531-11.382813-11.378906c17.691407-17.691406 20.386719-43.679688 6.019532-58.046875-7.300782-7.300781-17.59375-10.1875-28.277344-8.949219zm0 0" fill="#ccc033"/><path d="m74.96875 162.753906c-7.296875-7.296875-10.1875-17.59375-8.949219-28.277344.390625-3.382812-2.042969-5.816406-5.425781-5.425781-10.683594 1.238281-20.980469-1.648437-28.277344-8.949219-13.3125-13.308593-11.96875-36.589843 2.367188-54.007812 1.699218-2.0625 2.1875-4.671875 1.234375-6.671875-5.054688-10.609375-4.1875-24.109375 2.171875-36.289063-4.703125 2.457032-9.214844 5.730469-13.285156 9.800782-14.609376 14.605468-18.980469 34.867187-11.972657 49.574218.953125 2 .460938 4.609376-1.234375 6.671876-14.335937 17.417968-15.675781 40.699218-2.367187 54.007812 7.296875 7.300781 17.59375 10.1875 28.277343 8.949219 3.382813-.390625 5.816407 2.042969 5.425782 5.425781-1.238282 10.683594 1.652344 20.980469 8.949218 28.277344 14.367188 14.367187 40.355469 11.671875 58.046876-6.015625l11.378906 11.378906 23.089844-23.085937-11.382813-11.382813c-17.691406 17.695313-43.679687 20.386719-58.046875 6.019531zm0 0" fill="#99af17"/><path d="m178.816406 43.066406c-2.929687-.0625-5.363281-2.5-5.425781-5.425781-.203125-9.246094-3.988281-18.648437-11.285156-25.945313-13.308594-13.308593-33.613281-14.941406-47.199219-4.441406-1.605469 1.246094-3.84375 1.359375-5.714844.28125-13.777344-7.9375-31.0625-6.539062-42.140625 4.539063-11.082031 11.078125-12.480469 28.363281-4.542969 42.140625 1.082032 1.875.964844 4.109375-.277343 5.714844-10.5 13.585937-8.867188 33.890624 4.441406 47.199218 7.296875 7.300782 16.699219 11.082032 25.941406 11.285156 2.929688.0625 5.363281 2.5 5.429688 5.425782.199219 9.246094 3.984375 18.648437 11.28125 25.945312 14.367187 14.367188 36.890625 15.136719 50.308593 1.71875l11.382813 11.378906 46.84375-46.84375-11.378906-11.382812c13.414062-13.417969 12.648437-35.941406-1.71875-50.308594-7.300781-7.296875-16.703125-11.082031-25.945313-11.28125zm0 0" fill="#ccc033"/><path d="m126.835938 132.273438c-7.300782-7.296876-11.082032-16.699219-11.285157-25.941407-.0625-2.929687-2.5-5.363281-5.425781-5.429687-9.246094-.199219-18.648438-3.984375-25.945312-11.28125-13.308594-13.3125-14.941407-33.617188-4.441407-47.199219 1.246094-1.609375 1.359375-3.84375.28125-5.71875-5.726562-9.9375-6.59375-21.699219-2.472656-31.640625-3.84375 1.589844-7.410156 3.925781-10.5 7.011719-11.078125 11.078125-12.476563 28.363281-4.539063 42.140625 1.082032 1.875.964844 4.109375-.277343 5.714844-10.5 13.585937-8.871094 33.890624 4.441406 47.199218 7.296875 7.300782 16.699219 11.082032 25.941406 11.285156 2.929688.0625 5.363281 2.5 5.425781 5.425782.203126 9.246094 3.988282 18.648437 11.285157 25.945312 14.367187 14.367188 36.890625 15.136719 50.308593 1.71875l11.382813 11.378906 17.507813-17.507812-11.382813-11.382812c-13.414063 13.417968-35.941406 12.648437-50.304687-1.71875zm0 0" fill="#99af17"/><path d="m146.328125 28.902344c0 8.484375-6.878906 15.363281-15.363281 15.363281-8.488282 0-15.367188-6.878906-15.367188-15.363281s6.878906-15.363282 15.367188-15.363282c8.484375 0 15.363281 6.878907 15.363281 15.363282zm0 0" fill="#fce575"/><path d="m211.40625 127.390625c0 40.40625-32.753906 73.160156-73.15625 73.160156-40.40625 0-73.160156-32.753906-73.160156-73.160156 0-40.402344 32.753906-73.15625 73.160156-73.15625 40.402344 0 73.15625 32.753906 73.15625 73.15625zm0 0" fill="#ff4b34"/><path d="m198.609375 127.390625c0 33.335937-27.023437 60.363281-60.359375 60.363281s-60.359375-27.027344-60.359375-60.363281 27.023437-60.359375 60.359375-60.359375 60.359375 27.023438 60.359375 60.359375zm0 0" fill="#ff9079"/><g fill="#ff624b"><path d="m179.414062 127.390625c0 22.734375-18.429687 41.167969-41.164062 41.167969s-41.164062-18.433594-41.164062-41.167969 18.429687-41.164063 41.164062-41.164063 41.164062 18.429688 41.164062 41.164063zm0 0"/><path d="m198.261719 136.804688h-125.480469c-3.3125 0-6-2.6875-6-6s2.6875-6 6-6h125.480469c3.3125 0 6 2.6875 6 6s-2.6875 6-6 6zm0 0"/><path d="m179.886719 181.167969c-1.535157 0-3.070313-.585938-4.242188-1.757813l-88.730469-88.726562c-2.339843-2.34375-2.339843-6.140625 0-8.484375 2.34375-2.34375 6.144532-2.34375 8.488282 0l88.726562 88.726562c2.34375 2.34375 2.34375 6.140625 0 8.484375-1.171875 1.171875-2.707031 1.757813-4.242187 1.757813zm0 0"/><path d="m138.25 199.542969c-3.3125 0-6-2.6875-6-6v-125.476563c0-3.3125 2.6875-6 6-6s6 2.6875 6 6v125.476563c0 3.3125-2.6875 6-6 6zm0 0"/><path d="m93.886719 181.167969c-1.535157 0-3.070313-.585938-4.242188-1.757813-2.34375-2.34375-2.34375-6.140625 0-8.484375l88.726563-88.726562c2.34375-2.34375 6.140625-2.34375 8.484375 0s2.34375 6.140625 0 8.484375l-88.726563 88.726562c-1.171875 1.171875-2.707031 1.757813-4.242187 1.757813zm0 0"/></g><path d="m253.183594 176.390625-65.933594 65.9375-89.933594-89.933594c-5.859375-5.859375-5.859375-15.355469 0-21.214843l44.722656-44.722657c5.859376-5.859375 15.355469-5.859375 21.214844 0zm0 0" fill="#a56021"/><path d="m131.050781 97.445312-29.5625 29.5625c-8.160156 8.160157-10.726562 18.828126-5.730469 23.828126l91.492188 91.492187 29.5625-29.5625-91.492188-91.492187c-5-4.996094-2.429687-15.664063 5.730469-23.828126zm0 0" fill="#8c4c17"/><path d="m199.359375 39.789062 225.257813 225.257813c-63.261719 63.257813-165.828126 63.257813-229.085938 0-61.964844-61.964844-63.234375-161.636719-3.8125-225.144531 2.050781-2.191406 5.519531-2.234375 7.640625-.113282zm0 0" fill="#ffb74b"/><path d="m47.195312 191.957031 225.253907 225.253907c63.261719-63.257813 63.261719-165.824219 0-229.085938-61.960938-61.960938-161.632813-63.234375-225.140625-3.8125-2.195313 2.050781-2.238282 5.519531-.113282 7.644531zm0 0" fill="#ffc34c"/><path d="m272.449219 188.125c34.058593 34.054688 49.777343 79.5 47.164062 124.074219 5.226563-.308594 10.441407-.867188 15.621094-1.675781 7.726563-49.382813-7.425781-101.65625-45.476563-139.703126-38.050781-38.054687-90.320312-53.203124-139.707031-45.480468-.808593 5.179687-1.367187 10.394531-1.671875 15.621094 44.570313-2.613282 90.015625 13.109374 124.070313 47.164062zm0 0" fill="#db9c2e"/><path d="m245.445312 274.699219c0 8.484375-6.878906 15.363281-15.367187 15.363281-8.484375 0-15.363281-6.878906-15.363281-15.363281s6.878906-15.363281 15.363281-15.363281c8.488281 0 15.367187 6.878906 15.367187 15.363281zm0 0" fill="#f9bb32"/><path d="m287.5625 295.085938c0 8.484374-6.878906 15.363281-15.363281 15.363281s-15.363281-6.878907-15.363281-15.363281c0-8.488282 6.878906-15.367188 15.363281-15.367188s15.363281 6.878906 15.363281 15.367188zm0 0" fill="#f9bb32"/><path d="m77.46875 162.03125c-10.683594 6.117188-20.820312 13.542969-30.167969 22.285156-2.191406 2.050782-2.226562 5.515625-.105469 7.636719l225.253907 225.257813c10.417969-10.417969 19.109375-21.90625 26.09375-34.101563zm0 0" fill="#f9bb32"/><path d="m280.929688 250.71875c0 8.484375-6.878907 15.363281-15.363282 15.363281s-15.367187-6.878906-15.367187-15.363281c0-8.488281 6.882812-15.367188 15.367187-15.367188s15.363282 6.878907 15.363282 15.367188zm0 0" fill="#f9bb32"/><path d="m222.082031 187.675781c-1.46875 0-2.9375-.535156-4.09375-1.617187-25.488281-23.824219-73.226562-16.710938-73.707031-16.636719-3.277344.515625-6.34375-1.726563-6.855469-5-.511719-3.269531 1.71875-6.339844 4.992188-6.851563 2.1875-.347656 53.96875-8.128906 83.765625 19.722657 2.417968 2.261719 2.546875 6.058593.285156 8.480469-1.183594 1.265624-2.78125 1.902343-4.386719 1.902343zm0 0" fill="#ffd551"/><path d="m272.449219 188.125c34.058593 34.054688 49.777343 79.5 47.164062 124.074219 5.226563-.308594 10.441407-.867188 15.621094-1.675781 7.726563-49.382813-7.425781-101.65625-45.476563-139.703126-38.050781-38.054687-90.320312-53.203124-139.707031-45.480468-.808593 5.179687-1.367187 10.394531-1.671875 15.621094 44.570313-2.613282 90.015625 13.109374 124.070313 47.164062zm0 0" fill="#db9c2e"/></svg>