<?xml version="1.0" encoding="iso-8859-1"?>
<!-- Generator: Adobe Illustrator 19.0.0, SVG Export Plug-In . SVG Version: 6.00 Build 0)  -->
<svg version="1.1" id="Capa_1" xmlns="http://www.w3.org/2000/svg" xmlns:xlink="http://www.w3.org/1999/xlink" x="0px" y="0px"
	 viewBox="0 0 512.001 512.001" style="enable-background:new 0 0 512.001 512.001;" xml:space="preserve">
<path style="fill:#8CC63F;" d="M427.266,328.27c-5.972-24.461-17.723-53.836-30.16-84.934
	c-18.695-46.734-39.883-99.703-43.734-143.067C347.957,39.359,309.735,0,256,0c-53.64,0-93.691,41.403-97.402,100.688
	c-2.652,42.402-24.379,95.961-43.547,143.211c-12.551,30.934-24.403,60.152-30.316,84.371
	c-9.981,40.875-0.738,82.157,26.023,116.238c32.692,41.629,88.344,67.492,145.242,67.492s112.551-25.863,145.242-67.492
	C428.004,410.426,437.246,369.145,427.266,328.27z"/>
<path style="fill:#7CB242;" d="M427.266,328.27c-5.972-24.461-17.723-53.836-30.16-84.934
	c-18.695-46.734-39.883-99.703-43.734-143.067C347.957,39.359,309.735,0,256,0c-9.254,0-18.068,1.313-26.398,3.656
	c39.266,11.004,65.98,46.477,70.438,96.613c3.851,43.363,25.039,96.332,43.734,143.067c12.437,31.098,24.188,60.473,30.16,84.934
	c9.981,40.875,0.738,82.157-26.023,116.238c-27.549,35.078-71.414,58.891-118.576,65.539c8.807,1.242,17.713,1.953,26.666,1.953
	c56.898,0,112.551-25.863,145.242-67.492C428.004,410.426,437.246,369.145,427.266,328.27z"/>
<path style="fill:#CCDB39;" d="M389,315.602c-4.528-20.391-13.402-44.797-22.801-70.641
	c-14.054-38.648-29.981-82.453-32.867-118.199C329.117,74.664,298.766,41.004,256,41.004c-42.66,0-74.473,35.422-77.356,86.136
	c-1.988,34.93-18.316,79.211-32.723,118.277c-9.48,25.707-18.437,49.988-22.922,70.183c-8.207,36.988,0.461,73.797,24.41,103.649
	c26,32.398,66.593,51.746,108.59,51.746s82.589-19.348,108.589-51.746C388.539,389.398,397.207,352.59,389,315.602z"/>
<path style="fill:#BFC933;" d="M389,315.602c-4.528-20.391-13.402-44.797-22.801-70.641
	c-14.054-38.648-29.981-82.453-32.867-118.199C329.117,74.664,298.766,41.004,256,41.004c-7.645,0-14.922,1.18-21.764,3.34
	c30.799,9.68,51.656,39.898,55.096,82.418c2.887,35.746,18.812,79.551,32.867,118.199c9.398,25.844,18.273,50.25,22.801,70.641
	c8.207,36.988-0.461,73.797-24.41,103.649c-21.408,26.676-52.755,44.301-86.59,49.766c7.256,1.172,14.584,1.98,22,1.98
	c41.996,0,82.589-19.348,108.59-51.746C388.539,389.398,397.207,352.59,389,315.602z"/>
<path style="fill:#8C6239;" d="M256,235.105c-48.523,0-88,43.644-88,97.289s39.476,97.293,88,97.293s88-43.649,88-97.293
	S304.524,235.105,256,235.105z"/>
<path style="fill:#704828;" d="M256,235.105c-7.969,0-15.655,1.281-23,3.488c37.387,11.219,65,48.965,65,93.801
	s-27.613,82.582-65,93.804c7.345,2.207,15.031,3.488,23,3.488c48.523,0,88-43.649,88-97.293S304.524,235.105,256,235.105z"/>
<g>
</g>
<g>
</g>
<g>
</g>
<g>
</g>
<g>
</g>
<g>
</g>
<g>
</g>
<g>
</g>
<g>
</g>
<g>
</g>
<g>
</g>
<g>
</g>
<g>
</g>
<g>
</g>
<g>
</g>
</svg>
