<svg height="512pt" viewBox="0 -71 512.1619 512" width="512pt" xmlns="http://www.w3.org/2000/svg"><path d="m.0820312 207.609375c-1.3007812 37.632813 13.0859378 74.109375 39.7226568 100.722656 42.460937 42.109375 117.40625 62.589844 216.277343 62.589844 98.867188 0 173.8125-20.480469 216.273438-62.589844 26.636719-26.613281 41.023437-63.089843 39.726562-100.722656zm0 0" fill="#f29c1f"/><path d="m512.082031 207.609375c0 6.269531-6.179687 12.273437-17.566406 17.65625-22.070313 10.769531-63.558594 19.597656-116.085937 24.980469-40.652344 4.0625-81.492188 6.035156-122.347657 5.917968-40.859375.117188-81.695312-1.855468-122.351562-5.917968-52.523438-5.382813-94.011719-14.210938-116.082031-24.980469-11.386719-5.382813-17.5664068-11.386719-17.5664068-17.65625 0-19.242187 58.7890628-35.839844 144.1523438-43.695313 2.472656-.175781 4.945313-.441406 7.503906-.617187h208.683594c2.5625.175781 5.03125.441406 7.503906.617187 85.363281 7.855469 144.15625 24.453126 144.15625 43.695313zm0 0" fill="#d25627"/><path d="m512.082031 207.609375c0 6.269531-6.179687 12.273437-17.566406 17.65625-23.570313-11.386719-69.035156-20.746094-126.589844-26.042969h-223.691406c-57.554687 5.296875-103.015625 14.65625-126.585937 26.042969-11.386719-5.382813-17.5664068-11.386719-17.5664068-17.65625 0-19.242187 58.7890628-35.839844 144.1523438-43.695313 2.472656-.175781 4.945313-.441406 7.503906-.617187h208.683594c2.5625.175781 5.03125.441406 7.503906.617187 85.363281 7.855469 144.15625 24.453126 144.15625 43.695313zm0 0" fill="#e57e25"/><path d="m472.355469 308.332031c-42.460938 42.109375-117.40625 62.589844-216.273438 62.589844-98.871093 0-173.816406-20.480469-216.277343-62.589844 11.875-9.027343 23.25-18.691406 34.074218-28.953125 3.234375-3.164062 8.367188-3.277344 11.742188-.265625l50.492187 43.167969c3.078125 2.648438 7.574219 2.832031 10.859375.441406l49.609375-35.398437c3.714844-2.664063 8.847657-2.050781 11.828125 1.410156l40.960938 47.847656c1.679687 1.960938 4.128906 3.089844 6.710937 3.089844 2.578125 0 5.03125-1.128906 6.707031-3.089844l40.960938-47.847656c2.984375-3.460937 8.113281-4.074219 11.828125-1.410156l49.613281 35.398437c3.28125 2.390625 7.777344 2.207032 10.855469-.441406l50.496094-43.167969c3.371093-3.011719 8.503906-2.898437 11.738281.265625 10.828125 10.261719 22.203125 19.925782 34.074219 28.953125zm0 0" fill="#e64c3c"/><path d="m378.429688 250.246094c-40.652344 4.0625-81.492188 6.035156-122.347657 5.917968-40.859375.117188-81.695312-1.855468-122.351562-5.917968l10.503906-51.023438h.089844l6.265625-30.363281 1.148437-5.5625 17.742188-85.539063 1.765625-8.476562c8.261718-40.28125 43.714844-69.1992188 84.835937-69.1992188 41.121094 0 76.570313 28.9179688 84.832031 69.1992188l1.765626 8.476562 17.742187 85.539063 1.148437 5.5625 6.269532 30.363281h.085937zm0 0" fill="#f0c419"/><path d="m378.429688 250.246094c-40.652344 4.0625-81.492188 6.035156-122.347657 5.917968v-256c41.113281-.0664058 76.585938 28.835938 84.832031 69.117188l1.765626 8.476562 17.742187 85.539063 1.148437 5.5625 6.269532 30.363281h.085937zm0 0" fill="#f3d55b"/><path d="m361.570312 168.859375c-27.894531 16.683594-105.488281 16.683594-105.488281 16.683594s-77.59375 0-105.492187-16.683594l6.355468-30.898437h.089844l40.960938-20.480469c3.113281-1.59375 6.882812-1.140625 9.53125 1.148437l42.902344 35.75c3.273437 2.726563 8.027343 2.726563 11.300781 0l42.902343-35.75c2.648438-2.289062 6.417969-2.742187 9.535157-1.148437l40.957031 20.480469h.089844zm0 0" fill="#e64c3c"/><path d="m355.125 137.960938-40.957031-20.480469c-3.117188-1.59375-6.886719-1.140625-9.535157 1.148437l-42.902343 35.75c-3.273438 2.726563-8.027344 2.726563-11.300781 0l-42.902344-35.75c-2.648438-2.289062-6.417969-2.742187-9.53125-1.148437l-40.960938 20.480469 12.445313-60.203126c11.742187 4.941407 36.285156 10.679688 86.601562 10.679688 50.316407 0 74.855469-5.738281 86.597657-10.679688zm0 0" fill="#24ae5f"/><path d="m220.769531 61.796875h-.28125c-4.734375-.082031-8.53125-3.933594-8.546875-8.667969 0-9.164062 7.382813-26.484375 35.3125-26.484375 4.875 0 8.828125 3.953125 8.828125 8.828125s-3.953125 8.828125-8.828125 8.828125c-16.242187 0-17.558594 7.566407-17.65625 9.082031-.292968 4.679688-4.140625 8.34375-8.828125 8.414063zm0 0" fill="#f9eab0"/></svg>