<?xml version="1.0" encoding="iso-8859-1"?>
<!-- Generator: Adobe Illustrator 19.0.0, SVG Export Plug-In . SVG Version: 6.00 Build 0)  -->
<svg version="1.1" id="Capa_1" xmlns="http://www.w3.org/2000/svg" xmlns:xlink="http://www.w3.org/1999/xlink" x="0px" y="0px"
	 viewBox="0 0 512 512" style="enable-background:new 0 0 512 512;" xml:space="preserve">
<path style="fill:#5EAC24;" d="M500.005,437.376c-127.423,70.649-300.304,93.28-463.346,15.548c-0.01-0.01-0.031-0.01-0.041-0.021
	c-8.146-3.882-16.281-8.022-24.376-12.42c-11.749-6.38-15.765-21.32-8.858-32.769l18.811-31.179l18.501-30.663L238.314,18.415
	c6.463-10.717,21.95-10.841,28.578-0.227l16.312,26.09l7.403,11.842L470.364,343.59l18.966,30.323l19.079,30.519
	C515.522,415.798,511.733,430.872,500.005,437.376z"/>
<path style="fill:#7ED63E;" d="M500.005,437.376c-127.423,70.649-300.304,93.28-463.346,15.548c0-0.01,0.01-0.031,0.021-0.041
	l18.811-31.18l18.501-30.663L271.61,63.584c4.171-6.917,12.11-9.426,18.997-7.464L470.364,343.59l18.966,30.323l19.079,30.519
	C515.522,415.798,511.733,430.872,500.005,437.376z"/>
<path style="fill:#D7FC7E;" d="M489.33,373.91c-130.148,68.089-304.413,86.508-467.135,2.622l18.501-30.663L238.314,18.413
	c6.463-10.717,21.95-10.841,28.578-0.227l203.472,325.402L489.33,373.91z"/>
<path style="fill:#FF6243;" d="M470.363,343.586c-122.734,57.82-280.143,71.995-429.661,2.289L238.311,18.41
	c6.463-10.71,21.953-10.832,28.584-0.226L470.363,343.586z"/>
<path style="fill:#FF7956;" d="M489.33,373.912c-117.553,61.502-271.096,82.481-419.622,24.149L283.204,44.277L470.364,343.59
	L489.33,373.912z"/>
<g>
	<path style="fill:#891C00;" d="M152.742,317.576c-2.176,6.846-9.49,10.632-16.337,8.456c-6.846-2.176-10.632-9.49-8.456-16.337
		c2.176-6.847,14.175-25.37,21.022-23.195C155.818,288.677,154.918,310.729,152.742,317.576z"/>
	<path style="fill:#891C00;" d="M217.97,223.975c-1.032,7.109-7.633,12.036-14.742,11.004s-12.036-7.633-11.004-14.742
		c1.032-7.109,9.856-27.34,16.965-26.307C216.3,194.961,219.003,216.866,217.97,223.975z"/>
	<path style="fill:#891C00;" d="M290.885,223.975c1.032,7.109,7.633,12.036,14.742,11.004s12.036-7.633,11.004-14.742
		c-1.032-7.109-9.856-27.34-16.965-26.307C292.556,194.961,289.852,216.866,290.885,223.975z"/>
	<path style="fill:#891C00;" d="M355.249,317.576c2.176,6.846,9.491,10.632,16.337,8.456c6.846-2.176,10.632-9.49,8.456-16.337
		c-2.176-6.846-14.175-25.37-21.022-23.195C352.174,288.677,353.072,310.729,355.249,317.576z"/>
	<path style="fill:#891C00;" d="M267.742,327.868c0.17,7.182-5.514,13.142-12.696,13.312c-7.182,0.17-13.142-5.514-13.312-12.696
		c-0.17-7.182,5.148-28.603,12.329-28.773C261.245,299.541,267.571,320.685,267.742,327.868z"/>
	<path style="fill:#891C00;" d="M267.742,139.616c0.17,7.182-5.514,13.142-12.696,13.312c-7.182,0.17-13.142-5.514-13.312-12.696
		c-0.17-7.182,5.148-28.603,12.329-28.773C261.245,111.289,267.571,132.435,267.742,139.616z"/>
</g>
<path style="fill:#C9EEAE;" d="M489.33,373.912c-132.183,69.153-286.271,76.75-419.622,24.149
	c-15.91-6.246-31.768-13.411-47.513-21.526l18.501-30.663c16.137,7.516,32.356,14.062,48.628,19.688
	c134.464,46.449,271.55,29.61,381.04-21.97L489.33,373.912z"/>
<path style="fill:#EBFEC0;" d="M489.33,373.912c-132.183,69.153-286.271,76.75-419.622,24.149l19.616-32.501
	c134.464,46.449,271.55,29.61,381.04-21.97L489.33,373.912z"/>
<g>
</g>
<g>
</g>
<g>
</g>
<g>
</g>
<g>
</g>
<g>
</g>
<g>
</g>
<g>
</g>
<g>
</g>
<g>
</g>
<g>
</g>
<g>
</g>
<g>
</g>
<g>
</g>
<g>
</g>
</svg>
