<svg height="512pt" viewBox="0 -64 512 512" width="512pt" xmlns="http://www.w3.org/2000/svg"><path d="m512 192c0-32.476562 0-86.175781-15.113281-127.175781 14.804687-26.023438 7.21875-57.382813 6.875-58.765625-.890625-3.558594-4.089844-6.058594-7.761719-6.058594-1.375 0-32.566406.273438-58.050781 22.941406-50.761719-15.640625-137.621094-22.941406-181.949219-22.941406s-131.1875 7.300781-181.949219 22.941406c-25.484375-22.667968-56.675781-22.941406-58.050781-22.941406-3.671875 0-6.871094 2.5-7.761719 6.058594-.34375 1.382812-7.929687 32.742187 6.875 58.765625-15.113281 41-15.113281 94.699219-15.113281 127.175781s0 86.175781 15.113281 127.175781c-14.804687 26.023438-7.21875 57.382813-6.875 58.765625.890625 3.558594 4.089844 6.058594 7.761719 6.058594 1.375 0 32.566406-.273438 58.050781-22.941406 50.761719 15.640625 137.621094 22.941406 181.949219 22.941406s131.1875-7.300781 181.949219-22.941406c25.484375 22.667968 56.675781 22.941406 58.050781 22.941406 3.671875 0 6.871094-2.5 7.761719-6.058594.34375-1.382812 7.929687-32.742187-6.875-58.765625 15.113281-41 15.113281-94.699219 15.113281-127.175781zm0 0" fill="#f4f0f9"/><path d="m497.273438 318.074219c-266.355469 90.089843-441.273438 9.925781-441.273438 9.925781-49.265625-147.796875-12.382812-254.390625 15.820312-306.96875-25.039062-20.769531-54.484374-21.03125-55.820312-21.03125-3.671875 0-6.871094 2.5-7.761719 6.058594-.34375 1.382812-7.929687 32.742187 6.875 58.765625-15.113281 41-15.113281 94.699219-15.113281 127.175781s0 86.175781 15.113281 127.175781c-14.804687 26.023438-7.21875 57.382813-6.875 58.765625.890625 3.558594 4.089844 6.058594 7.761719 6.058594 1.375 0 32.566406-.273438 58.050781-22.941406 50.761719 15.640625 137.621094 22.941406 181.949219 22.941406s131.1875-7.300781 181.949219-22.941406c25.484375 22.667968 56.675781 22.941406 58.050781 22.941406 3.671875 0 6.871094-2.5 7.761719-6.058594.34375-1.382812 7.929687-32.742187-6.875-58.765625.132812-.363281.257812-.734375.386719-1.101562zm0 0" fill="#e8e2f3"/><path d="m447.15625 60.421875c-1.242188-2.480469-3.675781-4.140625-6.4375-4.390625-2.769531-.246094-5.457031.949219-7.117188 3.167969-.78125 1.039062-19.1875 25.957031-28.441406 71.199219-5.390625 26.355468-6.5625 54.265624-3.488281 82.953124 3.820313 35.679688 14.261719 72.664063 31.03125 109.929688 1.269531 2.820312 4.042969 4.65625 7.132813 4.71875h.164062c3.023438 0 5.796875-1.707031 7.152344-4.421875.675781-1.351563 16.632812-33.636719 24.738281-82.261719 7.496094-44.964844 9.285156-112.851562-24.734375-180.894531zm0 0" fill="#ea9dbe"/><g fill="#bba7da"><path d="m200 272h-56c-6.726562 0-10.460938-8.195312-6.019531-13.269531l44.390625-50.730469h-38.371094c-4.417969 0-8-3.582031-8-8s3.582031-8 8-8h56c6.726562 0 10.460938 8.195312 6.019531 13.269531l-44.390625 50.730469h38.371094c4.417969 0 8 3.582031 8 8s-3.582031 8-8 8zm0 0"/><path d="m264 200h-40c-6.371094 0-10.226562-7.449219-6.511719-12.648438l30.964844-43.351562h-24.453125c-4.417969 0-8-3.582031-8-8s3.582031-8 8-8h40c6.371094 0 10.226562 7.449219 6.511719 12.648438l-30.964844 43.351562h24.453125c4.417969 0 8 3.582031 8 8s-3.582031 8-8 8zm0 0"/><path d="m312 136h-24c-6.453125 0-10.285156-7.621094-6.398438-12.800781l14.398438-19.199219h-8c-4.417969 0-8-3.582031-8-8s3.582031-8 8-8h24c6.453125 0 10.285156 7.621094 6.398438 12.800781l-14.398438 19.199219h8c4.417969 0 8 3.582031 8 8s-3.582031 8-8 8zm0 0"/></g></svg>