<?xml version="1.0" encoding="iso-8859-1"?>
<!-- Generator: Adobe Illustrator 21.0.0, SVG Export Plug-In . SVG Version: 6.00 Build 0)  -->
<svg xmlns="http://www.w3.org/2000/svg" xmlns:xlink="http://www.w3.org/1999/xlink" version="1.1" id="Capa_1" x="0px" y="0px" viewBox="0 0 588.877 588.877" style="enable-background:new 0 0 588.877 588.877;" xml:space="preserve" width="512" height="512">
<g>
	<g id="Barrier-2">
		<polygon style="fill:#CCA400;" points="244.763,209.6 144.953,309.41 154.705,309.41 244.763,309.41 344.573,209.6   "/>
		<polygon style="fill:#CCA400;" points="44.914,209.6 44.914,309.41 45.144,309.41 144.953,209.6   "/>
		<polygon style="fill:#FFD422;" points="234.553,209.6 144.953,209.6 45.144,309.41 114.781,309.41 144.953,309.41 244.763,209.6       "/>
		<polygon style="fill:#FFD422;" points="354.324,209.6 344.573,209.6 244.763,309.41 354.554,309.41 454.363,209.6   "/>
		<polygon style="fill:#CCA400;" points="454.363,209.6 354.554,309.41 434.172,309.41 454.333,309.41 543.962,219.781     543.962,209.6   "/>
		<polygon style="fill:#FFD422;" points="474.096,309.41 543.962,309.41 543.962,219.781 454.333,309.41   "/>
		<polygon style="fill:#ACABB1;" points="254.514,169.676 234.553,169.676 234.553,209.6 294.438,209.6 294.438,169.676   "/>
		<polygon style="fill:#BDBCC1;" points="354.324,169.676 334.362,169.676 294.438,169.676 294.438,209.6 354.324,209.6   "/>
		<path style="fill:#FF7956;" d="M294.438,89.829c-22.049,0-39.924,17.875-39.924,39.924v39.924h39.924V89.829z"/>
		<path style="fill:#FF9478;" d="M334.362,169.676v-39.924c0-22.049-17.875-39.924-39.924-39.924v79.848H334.362z"/>
		<polygon style="fill:#79787D;" points="133.346,409.219 154.705,309.41 144.953,309.41 114.781,309.41 54.895,588.877     94.819,588.877 124.762,449.143 294.438,449.143 294.438,409.219   "/>
		<polygon style="fill:#B3B3B8;" points="474.096,309.41 454.333,309.41 434.172,309.41 455.531,409.219 294.438,409.219     294.438,449.143 464.115,449.143 494.057,588.877 533.981,588.877   "/>
		<path style="fill:#FF5023;" d="M294.438,59.886c-5.512,0-9.981-4.469-9.981-9.981V9.981c0-5.512,4.469-9.981,9.981-9.981    c5.512,0,9.981,4.469,9.981,9.981v39.924C304.419,55.417,299.951,59.886,294.438,59.886z"/>
		<path style="fill:#FF5023;" d="M254.514,70.585c-3.569,0.003-6.869-1.899-8.653-4.99l-19.962-34.584    c-2.725-4.792-1.049-10.885,3.743-13.61c4.747-2.699,10.782-1.082,13.544,3.629l19.962,34.584    c2.756,4.774,1.121,10.878-3.653,13.634C257.98,70.122,256.263,70.584,254.514,70.585z"/>
		<path style="fill:#FF5023;" d="M225.28,99.81c-1.753,0.004-3.475-0.458-4.99-1.337L185.706,78.51    c-4.755-2.788-6.351-8.903-3.563-13.658c2.762-4.711,8.797-6.328,13.544-3.629l34.584,19.962    c4.774,2.756,6.409,8.861,3.653,13.634C232.14,97.907,228.846,99.809,225.28,99.81z"/>
		<path style="fill:#FF5023;" d="M214.591,139.733h-39.924c-5.512,0-9.981-4.469-9.981-9.981c0-5.512,4.469-9.981,9.981-9.981    h39.924c5.512,0,9.981,4.469,9.981,9.981C224.572,135.265,220.103,139.733,214.591,139.733z"/>
		<path style="fill:#FF5023;" d="M414.21,139.733h-39.924c-5.512,0-9.981-4.469-9.981-9.981c0-5.512,4.469-9.981,9.981-9.981h39.924    c5.512,0,9.981,4.469,9.981,9.981C424.191,135.265,419.722,139.733,414.21,139.733z"/>
		<path style="fill:#FF5023;" d="M363.596,99.81c-5.512,0-9.981-4.469-9.981-9.981c0-3.566,1.902-6.86,4.99-8.643l34.584-19.962    c4.792-2.725,10.885-1.049,13.61,3.743c2.699,4.747,1.082,10.782-3.629,13.544l-34.584,19.962    C367.071,99.352,365.349,99.813,363.596,99.81z"/>
		<path style="fill:#FF5023;" d="M334.362,70.585c-5.512-0.006-9.976-4.479-9.971-9.991c0.002-1.749,0.463-3.466,1.337-4.98    l19.962-34.584c2.788-4.755,8.903-6.35,13.659-3.561c4.71,2.762,6.327,8.796,3.628,13.542l-19.962,34.584    C341.231,68.686,337.931,70.589,334.362,70.585z"/>
	</g>
</g>















</svg>
