<?xml version="1.0" encoding="iso-8859-1"?>
<!-- Generator: Adobe Illustrator 19.0.0, SVG Export Plug-In . SVG Version: 6.00 Build 0)  -->
<svg version="1.1" id="Layer_1" xmlns="http://www.w3.org/2000/svg" xmlns:xlink="http://www.w3.org/1999/xlink" x="0px" y="0px"
	 viewBox="0 0 512 512" style="enable-background:new 0 0 512 512;" xml:space="preserve">
<path style="fill:#FFCA28;" d="M367.357,219.45l23.331-62.615l-23.331-62.615h-94.335l-17.749,64.537l17.749,60.694h-46.66
	l18.599-60.006l-18.599-65.224l0,0l0,0h-0.296c-34.581,0-62.615,28.034-62.615,62.615s28.034,62.615,62.615,62.615l18.899,28.93
	H401.19l12.827-28.93L367.357,219.45L367.357,219.45z M226.362,219.45L226.362,219.45L226.362,219.45L226.362,219.45z"/>
<path style="fill:#4FC3F7;" d="M347.057,339.411h-37.025l-5.105-12.87c-1.575-3.971-6.069-5.912-10.041-4.338
	c-3.97,1.575-5.913,6.07-4.338,10.041l7.103,17.909c0,0.001,0,0.002,0.001,0.002l6.977,17.593c1.203,3.035,4.114,4.885,7.192,4.885
	c0.949,0,1.914-0.175,2.849-0.547c3.97-1.575,5.913-6.07,4.338-10.041l-2.842-7.167h30.891c4.271,0,7.734-3.463,7.734-7.734
	S351.329,339.411,347.057,339.411z"/>
<polygon style="fill:#FFCA28;" points="140.419,219.45 100.284,219.45 100.284,267.928 177.43,267.928 "/>
<g style="opacity:0.1;">
	<path d="M354.792,347.146c0-4.271-3.463-7.734-7.734-7.734h-22.51l3,15.469h19.509C351.329,354.88,354.792,351.417,354.792,347.146
		z"/>
</g>
<path style="fill:#8BC34A;" d="M488.027,219.45H140.419v51.34c0,19.313,15.656,34.97,34.97,34.97h163.64l21.728,112.021h134.737
	l-22.84-121.593c-2.118-11.276,4.049-22.471,14.711-26.706l9.512-3.778c9.13-3.627,15.123-12.456,15.123-22.28l0,0
	C512,230.183,501.267,219.45,488.027,219.45z"/>
<polygon style="fill:#FFCA28;" points="374.221,305.76 389.248,383.233 453.601,383.233 438.574,305.76 "/>
<g>
	<path style="fill:#4FC3F7;" d="M4.59,174.346c-24.986,31.624,60.181,47.549,60.181,47.549S29.576,142.722,4.59,174.346z"/>
	<path style="fill:#4FC3F7;" d="M10.624,284.492c12.053,32.278,61.425-22.938,61.425-22.938S-1.429,252.215,10.624,284.492z"/>
</g>
<path style="fill:#FFCA28;" d="M414.017,94.219L414.017,94.219L414.017,94.219L414.017,94.219L414.017,94.219l-23.33,62.615
	l23.33,62.615c34.581,0,62.615-28.034,62.615-62.615S448.599,94.219,414.017,94.219z"/>
<g>
	<rect x="367.356" y="94.223" style="fill:#FF6F43;" width="46.663" height="125.233"/>
	<rect x="226.366" y="94.223" style="fill:#FF6F43;" width="46.663" height="125.233"/>
</g>
<path style="opacity:0.1;enable-background:new    ;" d="M414.017,188.513H226.066c-29.243,0-53.798-20.047-60.686-47.147
	c-1.257,4.948-1.929,10.13-1.929,15.468c0,34.581,28.034,62.615,62.615,62.615h187.952c34.581,0,62.615-28.034,62.615-62.615
	c0-5.339-0.672-10.521-1.929-15.468C467.817,168.466,443.26,188.513,414.017,188.513z"/>
<g>
</g>
<g>
</g>
<g>
</g>
<g>
</g>
<g>
</g>
<g>
</g>
<g>
</g>
<g>
</g>
<g>
</g>
<g>
</g>
<g>
</g>
<g>
</g>
<g>
</g>
<g>
</g>
<g>
</g>
</svg>
