<?xml version="1.0" encoding="iso-8859-1"?>
<!-- Generator: Adobe Illustrator 19.0.0, SVG Export Plug-In . SVG Version: 6.00 Build 0)  -->
<svg version="1.1" id="Capa_1" xmlns="http://www.w3.org/2000/svg" xmlns:xlink="http://www.w3.org/1999/xlink" x="0px" y="0px"
	 viewBox="0 0 512.001 512.001" style="enable-background:new 0 0 512.001 512.001;" xml:space="preserve">
<circle style="fill:#C70024;" cx="261.911" cy="328.288" r="183.712"/>
<path style="fill:#D1E7F8;" d="M371.009,294.814c-0.706-1.02-17.779-25.151-30.023-63.882
	c-11.242-35.564-14.773-72.051-10.582-107.545c-3.495-3.954-4.985-9.541-3.477-15.007c1.198-4.341,4.06-7.778,7.704-9.81
	c1.619-7.235,3.57-14.409,5.852-21.503c2.07-6.377,21.195-62.326,58.907-74.658c11.109-3.632,28.522-4.957,48.387,9.373
	c21.689,15.647,27.691,39.474,16.055,63.74c-14.863,30.998-57.418,57.761-101.893,56.307c-7.93,82.317,34.849,143.5,35.359,144.214
	c5.183,7.26,3.5,17.347-3.76,22.53C390,301.1,378.476,305.609,371.009,294.814z M371.223,86.999
	c-1.363,4.237-2.571,8.44-3.638,12.609c30.784-0.792,58.674-20.433,67.122-38.053c6.117-12.757,0.298-19.591-5.829-23.576
	C400.438,19.481,376.124,71.892,371.223,86.999z"/>
<g>
	<path style="fill:#B9D8F4;" d="M361.014,156.752c-0.167-8.052,0.103-16.371,0.927-24.922c-22.637-0.738-31.536-8.441-31.536-8.441
		c-1.155,9.783-1.701,19.641-1.683,29.534C341.965,157.626,354.271,157.419,361.014,156.752z"/>
	<path style="fill:#B9D8F4;" d="M343.842,97.252c4.343,0.776,14.757,2.696,23.743,2.356c1.066-4.168,2.276-8.371,3.638-12.609
		c0.82-2.528,2.187-6.104,4.023-10.214c-6.559-0.307-18.422-1.467-32.688-5.578c-1.073,2.848-1.765,4.91-2.074,5.862
		c-2.283,7.094-4.232,14.268-5.852,21.503C334.633,98.571,339.498,96.476,343.842,97.252z"/>
</g>
<circle style="fill:#FF3F62;" cx="226.051" cy="328.288" r="183.712"/>
<path style="fill:#FF0C38;" d="M229.897,144.613c-19.056-0.4-37.496,2.119-54.891,7.143c50.956,40.21,83.121,102.986,81.656,172.884
	c-1.54,73.481-39.884,137.54-97.056,174.973c19.451,7.545,40.526,11.883,62.593,12.346c101.44,2.126,185.397-78.384,187.522-179.824
	C411.847,230.695,331.337,146.739,229.897,144.613z"/>
<path style="fill:#FFE477;" d="M222.876,479.663c-83.47-1.749-149.954-71.079-148.206-154.55
	c1.749-83.47,71.079-149.955,154.55-148.206c83.47,1.749,149.955,71.079,148.206,154.551
	C375.677,414.929,306.346,481.412,222.876,479.663z"/>
<path style="fill:#FFDA44;" d="M229.221,176.907c-8.816-0.184-17.473,0.4-25.91,1.677c34.211,38.882,54.523,90.193,53.353,146.054
	c-1.245,59.455-26.587,112.742-66.498,150.75c10.513,2.563,21.456,4.037,32.711,4.273c83.47,1.749,152.802-64.736,154.551-148.205
	C379.175,247.988,312.691,178.657,229.221,176.907z"/>
<path style="fill:#91DC5A;" d="M223.552,447.368c-65.662-1.376-117.963-55.915-116.587-121.578s55.916-117.963,121.578-116.588
	c65.662,1.376,117.963,55.916,116.588,121.579C343.755,396.444,289.214,448.744,223.552,447.368z"/>
<path style="fill:#6DC82A;" d="M228.544,209.202c-0.925-0.02-1.847-0.025-2.767-0.023c20.382,33.621,31.772,73.241,30.887,115.46
	c-0.96,45.802-16.225,87.941-41.429,122.259c2.748,0.248,5.52,0.411,8.319,0.47c65.662,1.376,120.203-50.924,121.579-116.587
	C346.509,265.118,294.205,210.578,228.544,209.202z"/>
<path style="fill:#FFFFFF;" d="M224.229,415.073c-47.854-1.002-85.971-40.751-84.968-88.605
	c1.002-47.854,40.751-85.972,88.606-84.968c47.854,1.002,85.972,40.752,84.968,88.606S272.083,416.075,224.229,415.073z"/>
<path style="fill:#D1E7F8;" d="M312.838,330.081c0.898-42.888-29.632-79.244-70.425-87.053
	c9.751,25.275,14.855,52.827,14.253,81.588c-0.677,32.306-8.48,62.784-21.856,89.988
	C277.806,410.271,311.91,374.357,312.838,330.081z"/>
<path style="fill:#FF3F62;" d="M224.906,382.778c-30.046-0.629-53.979-25.587-53.35-55.633c0.629-30.046,25.587-53.979,55.634-53.35
	c30.047,0.629,53.979,25.588,53.35,55.634C279.911,359.475,254.952,383.407,224.906,382.778z"/>
<path style="fill:#FF0C38;" d="M280.542,329.428c0.432-20.598-10.683-38.802-27.394-48.419c2.606,14.12,3.829,28.712,3.517,43.629
	c-0.385,18.39-3.079,36.189-7.792,53.13C267.185,369.288,280.092,350.926,280.542,329.428z"/>
<circle style="fill:#806749;" cx="226.051" cy="328.288" r="16.151"/>
<g>
</g>
<g>
</g>
<g>
</g>
<g>
</g>
<g>
</g>
<g>
</g>
<g>
</g>
<g>
</g>
<g>
</g>
<g>
</g>
<g>
</g>
<g>
</g>
<g>
</g>
<g>
</g>
<g>
</g>
</svg>
